<svg xmlns="http://www.w3.org/2000/svg" viewBox="0.10 0.00 288.20 179.50"
  fill="currentColor" preserveAspectRatio="xMinYMid meet"
  aria-label="Université de Cergy-Pontoise">
  <g fill="currentColor">
    <path
      d="m126.7 20.6.2.1.1.3.3.3q-.3.1-.4.5l-.2.2-.4.5-.4.4v.4l-.3.3-.3.4-.6.7-.2.8c0 .2-.5 1.2-.3 1.4h1v-.1h.8l.2-.2h1l.3-.1-.1.7v.7q0 .3-.4.6l-.3.2-1 1v.6q0 .3-.2.5l-.2.2-.8.6-.6.8-.3.6c-.3-.2-.4.2-.5.2l-.3.3v.2q-.3 0-.4.2l-.6.7-.5.5-.5.6-.4.2-.4.4-.4.3-.2.3-.2.1v.3h-.1c-.1-.3-.5.1-.7.1v.4h-.1v-.2h-.2v.1c-.4 0-1.2.7-1.5.9l-.7.4v.4h-.3q-.4.1-.6.5h-.1l-.5.3c-.2.2-1 .5-1 .8q-.6.2-.7.4h-.1q-.4 0-.6.3l-.2.2-.2.2q-.4 0-.7.3l-.6.4-.4.2-.6.4-.5.2-.2.2-.4.2-.2.1v.2c-.3 0-1 .3-1 .5l-.1.2q-.4 0-.6.3l-1 .5c-.2.3-.7.2-.7.6v.2h-.3l-.5.3q-.4 0-.6.3l-.2.2h-.1l-.8.6-1.8 1-2 1.2q-8 4.9-15.3 11-7 6-14 13l-5.7 6-4 4.5-2.4 2.8-1.9 2.3-3 3.8-2.7 3.4-5.3 7-2.6 3.7-2.4 3.4-.9 1.4q-3.4 5-6.5 10.2l-3.5 6-2.4 4.2-2.6 4.7-3.6 7.3-1.3 2.5-1.7 2.8-1 1.6v.1l.4-1 .2-.4.2-.2.2-.5.4-.8.2-.1v-.4H17l-.6 1-.2.3-.7 1.2h-.1c0-.3.4-.6.4-1h-.2c0 .2-.7 1.5-1 1.5q.1.1 0 .2l-.2.5q0-.1 0 0-.3.1-.4.5v.2l-1 1.7-.2.2-.4.7-.2.4-1.4 3-.5.8-.5 1-.2.2-.7 1.5-.5.8-.3.8-2 3.9-2.2 4.6-.5 1 .1-.5.9-1.8.2-.7.4-.5.5-1.2 1.1-2.5.3-.5.2-.4.2-.6-.3.1-.6 1.3-.7 1.4-1.5 3.3-.9 1.8.2-.7.9-1.9.6-1.3.8-2 .7-1.6.4-.7.1-.4.5-1 .3-.8h-.1l-.3.6-.4 1-.4.5-.1.4-.3.3v.2l-.4.7v.2l-.2.2-.4 1-.2.7-.2.4-.3.6q0 .4-.3.8l-2.8 6.6-1 2.4-.3.6.3-1 .5-1 .3-1 .5-1 .2-.6q0-.4.3-.7l.1-.5.3-.4.8-2.3.5-1.2.5-1.3v-.1h-.1v.1-.4.2h.2l.2-.7h-.1l-.1.4h-.1q0-.4.3-.8v.2h.1l.2-.4.4-1 .2-.4h-.1q.1-.8.4-1.5l.2.1.2-.5H6l.3-1.3h-.1l-.4 1-.3.6-.2.4-.2.3v.3l-.2.3-.3.8v.4l-.4 1-.1.1-.2.8-.6 1.4-.1.3-.3.9-.7 1.6-.8 2.1-.4.7q.2-1 .7-2L3 170l.2-.4.8-2.4.1-.3v-.3l.1-.4.8-3 2-6.4.8-2.6 2.3-6.6 1-2.7 1.1-2.7 1.4-3.3 4.3-9.8 2.7-5.5 2.4-4.7 1-2q.5-.5.6-1.2v.1q.5-.7.7-1.4l.3-.6.3-.5.1-.5v-.2h.2l.4-.6.3-.7.2-.4v-.2l.2-.2.2-.4.2-.2.2-.4.4-.7.3-.4v-.4l.3-.2.2-.4.2-.2.2-.5.4-.8.2-.2.2-.3c0-.2.4-.5.3-.7h.1q0-.2.2-.3l.1-.3.2-.2.2-.5.1-.1.1-.3v-.2l.3-.3.6-.9.2-.3v-.2h.2l.1-.4q.3-.1.3-.4l.3-.4v-.3l.2-.1.1-.3q.3-.2.4-.5c.2-.2 0-.5.4-.5l.1-.6h.1l.2-.2q0-.5.4-.6l.1-.4v-.1h-.2V96l.2-.1h.2l.1-.6v.4h.2v-.1l.1-.2.1-.2.3-.3.1-.4c.2-.2.3 0 .3-.4l.1-.1v-.3c.6 0 1-1.5 1.3-1.5l.3-.5.7-1 .2-.2.4-.7h.2q0-.4.4-.7l1-1.3v-.2l.5-.6.4-.5v-.1l.3-.3.3-.3.2-.4q.4-.3.4-.7h.2v-.2c.2-.1.7-.8.7-1h.2l.2-.4.2-.2.5-.8.2-.1 1-1.4.2-.2.1-.2.4-.5.7-.8 1.3-1.7.5-.5 2.9-3.6 4-5q.5-.4.7-.8l.1-.2h.1l1-1.2 1.6-1.8 5.5-6A178 178 0 0 1 94 34l3.1-2.1 2.8-1.7.2-.2v.1l1.8-1 4.8-2.5 2.2-1 2.6-1 .3-.1.6-.2.2-.1h.1l.5-.4q.8 0 1.3-.4h.2l.4-.3h.5v-.3c.2.2 1.2-.2 1.4-.3h.3l.5-.3V22h1l.9-.2.2-.2h.8l.4-.1h1.4l.3.1.6-.2h.7l.3-.1.7-.1.2-.1z" />
    <path
      d="M40.3 56.7q.5-.3.8-.8l.5-.4.6-.5 1-1q.2-.1 0-.3h.1l.1-.2h.2l.4-.5v-.3l.1-.1.4-.3.3-.3h.2l.5-.5h.2q.2 0 .2-.3l.2-.1h.2l.3-.4h.3q.2-.5.6-.4l.6-.4-.3.4h.3v-.1q.5-.2.7-.5l.2-.1.7-.5.3-.2.1-.3v-.3l.3-.2h.2l.1-.2.1-.1h.2l.4-.5q-.6.1-1 .5l-.5.3-1.1.7h-.3.2l.6-.7h-.1q.1-.3.6-.5l.3-.2q.4-.2.7-.6c.2 0 .8-.6.8-.6l.1-.2v.2q.4 0 .6-.3l.2-.2.1-.3.3-.2v.2q.3 0 .3-.3v-.2h.3l.3-.2.2-.2.3-.2.5-.4h.1l.2-.1H55v-.1h.2v-.2h.2l.1-.2.1.1.1-.2.3-.2.4-.4.1.1.3-.3.2-.2.3-.2q.4-.2.4-.5v-.1h.3v-.1l-.1-.2h.1l.2-.2v-.1h.1v.2l.2-.3h.2l.1-.2v-.1h.3v-.2l.1.1.3-.2-.2-.1h.3l.3-.3v-.1h-.2l.2-.3.1.1.6-.3v-.3l.4-.1v-.1l.5-.4.2-.4h.3l.6-.6V37l.7-.3v-.1l.1-.1.3-.4h.2l-.1-.2.4-.3.3-.1h-.1q0-.3.3-.4v.1h.1V35l.7-.8.3-.4.2-.2 1-1.3.6-.5.7-1.1.1-.2.9-1.2.1-.2.4-.6.7-1.1.2-.2 1-1.5.5-1.1.6-1q.8-1.2 1.3-2.5l.3-.7v-.2l.5-1 .2-.5H75l.3-.6h-.1l.4-1 .1-.2v-.4l.5-1.3H76l.1-.4.1-.4v-.7h.1v-.2q.2 0 .2-.2v-1h.2l-.2-.2.1-.4.1-.2.1-.7v-.1l-.1-.1.2-.2V10l.2-.6v-1l.1-.4V6.2L77 5l-.4-.7q0-.4-.2-.7l-.9-1.2-.3-.6.2-.2q-.2-.6 0-1l.3-.2q.2 0 .4.3l.6-.2h.5l.5-.3.2-.1V0l.4.2h.2l.5.5h.2l.5.2.7.2.9.5.5.3.1.3.3.2.4.2 1 .7.2.1 1.2 1 .4.6.3.3.6.7.4.3.2.2.5.5c.3.3.9 1.3 1.3 1.4v.2l.1.3.6.9.2.4.4.5.3.9.3.1q0 .7.3 1.2v.2l.2.5.3.3v.5l.3.9q.3.4.2 1l.1.5v1l.2 1.2v2l-.2.8h.2v.1H92v.5l-.4 1.4-.2 1-.2.4-.1.3q-.3.6-.2 1.2l-.2.7v.3l-1 2.5q0 .4-.3.8v.6h-.3l-.3 1-.2.4-.3.7-.1.2v.3c-.4 0-.4.5-.6.5v.3l-.2.2-.3.6v.4-.2H87l-.4.7-.4.5-.4.7-.3.4-.4.4v.3q-.3 0-.4.3-.2.1-.3.4l-.3.3-.3.4-.5.6-.3.5-.5.4-.3.4-.3.2-.5.7-.3.2v.4h-.2s-.8.6-.6.6q-.4 0-.4.4h-.2l-.3.4-.3.2-.1.2-.3.2-.5.5-.2.2-1 .9-.2.1-.4.4-.2.1-.4.2h-.2l-.3.3-.2.2-.4.3h-.1l-.3.2v-.3h-.1l-1.2.8-.3.2q-.3.4-.8.6l.2-.3H72V50h.3v-.2h-.1c.2-.1 1-.8 1-1l-.1-.1q-.3 0-.5.3c-.3-.1-1 .3-1.2.4H71l-.2.2q0 .4-.2.3v-.2h-.1v.3l-.3.1v-.3l-.2.3s-.3-.4-.4-.3c-.2.4-1 .1-1.1.7H68l-1 .5-1 .4-.7.5q-.1.2-.3 0l.6-.3.4-.3-.2-.1-.3.1q-.4.3-1 .3h-.2.2v-.2l-.1-.1q-.2 0-.3.2h-.2l-.3.2h-.1l-.3.2-.5.2q.3-.5.9-.7l.2-.3h.5v-.2c-.2-.1-1.5.6-1.5.7v.1H62l-.4.1v.1h-.2q-.4.1-.7.5h.2-.3v.3h-.1v-.2l-.4.2h.1v.1H60l-.2.2q-.4 0-.7.4l-.5.2-.6.2-1.3.6h-.2l1.2-.6.8-.4 1.3-.7 1.5-1h.1-.5v-.2q-.2-.1-.2.2h-.2l-.4.2-.3.3-.6.3-.4.4-.6.4v-.2h-.3l-.2-.2.6-.2.7-.5.3-.3H59l.4-.3.4-.1.1-.2-.3.1v-.1h-.2v.2q-.3.4-.8.4-.3.5-.7.5l-.4-.1-.2.3H57l-.2-.2-.1-.3V52v.1l-.3-.1v.1l.3.1v.1l-.2.1h.2l-.3.3h.2v.2l-.1.2-1 .2v.2l-.2-.1H55s-.7.2-.6 0l.5-.2v-.3l.4.4q.4-.2.4-.5v-.3h-.1l-.9.4-.8.5-.4.1v.1h-.1l-.4.2h-.2l-.2.2h-.4q-.2.3-.5.2l.3-.2c.3-.1 2-.8 2-1l.3-.1.6-.5-.7.2-.4.2-.1.2q-.5 0-.7.4l-1 .3-1.2.6h-.3v.2h-.4v.2l-.2.1-.4.1h-.3v.2h-.4V55l.8-.4 1.8-1 .2-.1.5-.2.3-.3.6-.3.5-.3V52q.3.1.5-.1l.2-.2v-.3c-.1-.1-.9.4-1 .5l-.5.1q0 .2-.4.2V52l-.3.2-.5.4-1 .5-.5.2-.7.4-.3.1-.7.4H48l-.3.1s-.5.5-.5.3l-.1.1v-.1l.2-.2h-.2l-.6.4h-.3l-.6.3-1 .5.4-.5.4-.2.1-.1v.1l.4-.2v-.1h.3v-.2l-.4.2v-.2h-.2l-.7.4-.6.4-.6.3-.4.3-.3.1-.1.2-.5.3h-.2l-.5.4-.1-.1.3-.3h.2l.5-.4.3-.2.6-.4.2-.1.6-.4.4-.3.2-.1.4-.3H45l-.5-.1-.8.2-1 .8-.2.2-.9.7-.4.3-.8.5m39 70.5-1 .8q-.8.4-1.5.4-4.7 0-4.7-5.4 0-2.4 1.3-4a4 4 0 0 1 3.3-1.6 3 3 0 0 1 2.6 1.5zm2.6 3.2v-21h-2.6v6.9q-1.1-1-3.3-1.1-2.7 0-4.6 2.4a9 9 0 0 0-2 5.7q0 3.3 1.7 5.3t4.4 2 3.8-1.3v1zm12.4-11.8q1 1 1 2.7h-8q.3-1.6 1.3-2.7 1.2-1.2 2.8-1.2 1.8 0 2.9 1.2m3.5 3q0-3-1.7-4.6a6 6 0 0 0-4.8-1.8q-2.7 0-4.5 2a8 8 0 0 0-2.2 5.9q0 3.6 2.1 5.6a6 6 0 0 0 4.6 2q1.9 0 3.4-.6 1.2-.5 1.8-1l-1.1-2q-1.5 1.3-3.6 1.3-1.9 0-3.2-1.2-1.3-1.5-1.3-4h10.3zm23.6-10.8-1 2.3q-1.2-1-4-1-2.5 0-4 2.4-1.6 2.3-1.6 6 0 3.3 1.6 5.5t4 2.2a5 5 0 0 0 4.3-2l1.5 2a8 8 0 0 1-6 2.5q-3.9 0-6-2.9-2.2-2.8-2.2-7.6 0-4.5 2.3-7.5 2.4-3 6-3 3.3 0 5 1m12.6 7.9q.9 1 .9 2.7h-8q.3-1.6 1.3-2.7 1.1-1.2 2.9-1.2t2.8 1.2m3.4 3q0-3-1.7-4.6a6 6 0 0 0-4.8-1.8q-2.6 0-4.5 2a8 8 0 0 0-2.2 5.9q0 3.6 2.1 5.6a6 6 0 0 0 4.6 2q2 0 3.4-.6 1.2-.5 1.8-1l-1-2q-1.5 1.3-3.7 1.3-2 0-3.1-1.2-1.4-1.5-1.4-4h10.3q.3-.7.2-1.6m10.6-3.6q-.8-.6-1.7-.6-1.4 0-2.4 1.3a5 5 0 0 0-1 3.1v8.6h-2.5v-15h2.5v2.5q1.4-2.7 4.2-2.7l2 .2zm9.7.3q.9.9.9 2.4 0 1.6-.8 2.6-.7 1-2.1 1t-2.2-1a4 4 0 0 1-.8-2.6q0-1.5.8-2.4.9-1 2.2-1 1.2 0 2 1m-5 17.4q1.5.5 3 .5 2.7 0 4.5-1.3t1.7-3.3q0-1.8-1.2-2.9-1-1-3.2-1l-1.8.2-1.8.2q-1.4 0-1.3-.6 0-.4.6-.6l1-.3 2.1-.3q2.2-.2 3.5-1.7 1.4-1.5 1.4-3.8 0-2.1-1-3.5l1.5-1.2-1.6-1.6-1.3 1.6q-1.2-.9-3.3-.9-2.3 0-3.8 1.6-1.5 1.5-1.6 3.9 0 3.6 3 5-1 .3-1.8 1-.7.5-.7 1.3 0 2.4 3 2.4l1.8-.3 1.6-.2q2.4 0 2.5 1.8 0 .9-1 1.5t-2.8.7-4-1.6l-1.4 2.1q.9.8 2.5 1.3M170 133q-.6 1.4-2.2 2.4-1.5.9-3.5.9v-2.4q1.6 0 2.7-.7 1.2-.8 1.2-2 0-1-.5-2.3l-1-3-3.9-10.3h2.6l4.2 11.5 3.8-11.5h2.6zm8.3-12h5.7v2.4h-5.7zm14-8.5q5.4 0 5.3 3.7 0 4-5 4H191v-7.6zm.6 10.3q7.5 0 7.5-6.9 0-6-8.5-6l-3.7.2v20.4h2.7v-7.9zm11.9-3.8q1-1.5 2.7-1.5 3.8 0 3.8 5.5 0 2.5-1 4t-2.8 1.6q-3.8 0-3.8-5.6 0-2.5 1-4m-2 9.6a6 6 0 0 0 4.7 2.1q3 0 4.8-2a9 9 0 0 0 1.7-5.7q0-3.6-1.7-5.7a6 6 0 0 0-4.8-2q-3 0-4.7 2.1a8 8 0 0 0-1.7 5.6q0 3.6 1.7 5.6m22.8 1.9v-8.7q0-2.4-.7-3.3-.8-1-2.3-1-.9 0-1.9.6t-1.4 1.3v11h-2.6v-14.8h1.8l.8 1.9q1.3-2.2 4-2.2 4.8 0 4.8 6v9.2zm7-12.8H231v-2.1h1.6v-3.1l2.6-1v4h3.9v2.2h-4v7.4q0 1.8.7 2.6.5.8 2 .8 1 0 2-.5l.3 2.3q-1.6.4-3.4.4t-2.9-1.3-1.2-3.3zm12.7 1.3q1.1-1.5 2.8-1.5 3.8 0 3.8 5.5 0 2.5-1 4t-2.8 1.6q-3.8 0-3.8-5.6 0-2.5 1-4m-2 9.6a6 6 0 0 0 4.8 2.1q3 0 4.7-2a9 9 0 0 0 1.8-5.7q0-3.6-1.7-5.7a6 6 0 0 0-4.8-2q-3 0-4.7 2.1a8 8 0 0 0-1.8 5.6q0 3.6 1.8 5.6m16.5-18.6q.6 0 1 .4t.5 1.2-.4 1.1-1.1.5-1.1-.5q-.5-.5-.5-1.1a1.6 1.6 0 0 1 1.6-1.6m-1.4 20.5v-12.7h-2v-2.2h4.5v14.9zm5.6-.9 1-2.5q2 1.5 3.3 1.4 2.4 0 2.4-2 0-1.5-2.3-2.6l-2.3-1.2q-.6-.4-1-1l-.8-1.2-.2-1.3q0-1.8 1.3-2.9t3.4-1q1.5 0 3.9 1l-.7 2.5q-1.5-1.3-3-1.3-1 0-1.6.5t-.6 1q0 1.5 1.5 2.3l1.9.8q1.6.8 2.4 1.8t.7 2.6q0 2-1.3 3.1t-3.7 1.1-4.3-1.1m20.8-10.9q1 1 1 2.7h-8q.3-1.6 1.3-2.7 1.2-1.2 2.8-1.2 1.8 0 2.9 1.2m3.5 3q0-3-1.7-4.6a6 6 0 0 0-4.8-1.8q-2.6 0-4.5 2a8 8 0 0 0-2.2 5.9q0 3.6 2.1 5.6a6 6 0 0 0 4.6 2q1.9 0 3.4-.6 1.2-.5 1.8-1l-1-2q-1.6 1.3-3.7 1.3-2 0-3.1-1.2-1.4-1.5-1.4-4H288zm-217.8-38H74v13.6q0 1.6 1 2.7 1 1 2.6 1a4 4 0 0 0 3-1q1-1 1-2.7V83.7H85v13.9q0 3-2 4.8a8 8 0 0 1-5.3 1.8q-3.4 0-5.3-1.7t-1.8-5zm31.2 20.4-9.5-12.7v12.5H89V83.7h1.7l9.2 12.2V83.7h3.3V104zm5.4-20.4h3.5v20.2H107zm14.7 20.4H120l-7.2-20.4h3.8l4.5 13.6 4.7-13.6h3.7zm13.1-17.2v4.7h6.3v3H135v6h8.8v3.3h-12.2V83.7h12.2v3.2zm16.8-.2q2.3 0 3.3.6t1.1 2q0 2-1 2.5a6 6 0 0 1-3.2.7l-1.4-.1v-5.6zm10.1 17.2-5.7-9.1q1.5-.7 2.6-2.1 1-1.5 1-3.3 0-6-7.4-6l-5.4.3v20.2h3.6v-8.5l2.2.1 5.2 8.4zm.8-1.2 1.3-3.2q2 1.5 4 1.5 3 0 3-2.2 0-1-.7-2a9 9 0 0 0-3-2q-2.1-1.2-3-2-.7-.7-1.2-1.8a6 6 0 0 1-.4-2.3 5 5 0 0 1 1.7-3.8 6 6 0 0 1 4.2-1.6q3.3 0 5 1.3l-1.1 3.1a6 6 0 0 0-3.8-1.3q-1.2 0-1.9.6t-.6 1.7q0 1.8 3.7 3.6a12 12 0 0 1 2.8 1.8q.8 1 1.3 2 .4 1.1.4 2.5a5 5 0 0 1-1.8 4q-2 1.5-5 1.6-2.7 0-5-1.5m15-19h3.4v20.2h-3.4zm15.3 3.2v17h-3.4v-17h-6.2v-3.2h16.1v3.2zm12.2 0v4.7h6.3v3H205v6h8.8v3.3h-12.3V83.7h12.3v3.2zm6.1-9-3 4.1h-2.5l2.3-4z" />
  </g>
</svg>
