<svg xmlns="http://www.w3.org/2000/svg" fill="currentColor" fill-rule="evenodd"
  aria-label="EDC Paris Business School" preserveAspectRatio="xMinYMid meet"
  viewBox="288 1004 1942 431">
  <path
    d="M1174 1434.4c-29.9-2.6-54.1-9-77-20.3a212 212 0 0 1-71.7-55.5 202 202 0 0 1-37.1-64.1c-2.1-6-4.1-11-4.5-11s-2.1 4-3.8 8.8c-2.6 8-9.9 23.6-15.9 34.2a204 204 0 0 1-28.8 37.5 205 205 0 0 1-93.2 57.3c-22.4 6.3-17.1 6-128.8 6.4-100.4.4-102.2.4-102.2-1.5 0-1.1 2.2-9.8 4.9-19.3s7.4-26.9 10.4-38.4a8670 8670 0 0 1 33.3-122l12.5-45.5a1670 1670 0 0 1 16.6-59c3.7-13.6 5.1-17.5 5.9-16.8.3.3.5 49.2.4 108.6 0 70.7.3 108.3 1 108.7 1.3.8 92.5.7 99.3-.1A124 124 0 0 0 905 1240.7c1.7-9.5 1.5-34.7-.4-43.8a123 123 0 0 0-81.1-92.2c-20.4-6.7-2.8-6.2-236.5-6.2H375.5v79l89 .5c78.3.4 89 .7 88.8 2a2467 2467 0 0 1-21.5 80.5c-.3 2-1.3 2-78.3 2.5l-78 .5-.3 38c-.1 20.9 0 38.9.2 40 .5 2 1.2 2 66 1.7 46.3-.2 65.6 0 66.1.8.3.5-1 7-3 14.3-2.1 7.2-5.3 19.5-7.2 27.2a783 783 0 0 1-10.3 38.8l-1.2 3.7-98.6-.2-98.7-.3v-417l255.5-.3c180.8-.2 258.7 0 266.5.8 23.2 2.3 41.2 7.5 63.2 18a202 202 0 0 1 74.6 60.4 230 230 0 0 1 34.4 66.5c.6 2.4 2 .1 5.8-10.4a216 216 0 0 1 61-88.3 213 213 0 0 1 177.5-50 211 211 0 0 1 77 30.5 196 196 0 0 1 32.8 26.8l9.4 9-4.9 4.3c-10.4 9.3-59.9 51.9-61.1 52.6q-1.4.7-7.2-4.8a112 112 0 0 0-42-25 102 102 0 0 0-40.5-6.6 127 127 0 0 0-100.6 47.2 122 122 0 0 0-26.5 103.3 137 137 0 0 0 51.5 79 128 128 0 0 0 108.6 19.4 115 115 0 0 0 45.1-24.2c1.8-1.6 3.9-2.7 4.7-2.5 1.3.3 22.5 20.1 50.9 47.7 6 5.8 10.8 11.1 10.8 11.7a202 202 0 0 1-117 57.4c-9.3 1.1-36.8 2-44 1.4m260-7.4a52 52 0 0 1-18.9-9.3l-2.2-2.5 5.9-6.8c8.7-10.2 8.7-10.2 12-6.9 6.2 6.3 16 8.2 23.2 4.5 4.3-2.2 6-4.6 6-8.2-.1-4.9-4.1-7.7-17.5-11.9-13-4.1-16.5-6-20.8-11-11-12.8-4.9-34.4 12.2-42.5 12.5-6 33-4.3 44.2 3.7 1.6 1.1 2.9 2.6 2.9 3.2s-3.1 4.5-6.8 8.6l-6.7 7.4-3.9-2.6c-7.5-5.1-18.2-5-22.8.2-3.4 3.9-3.5 6.1-.3 9.9 1.8 2.1 4.4 3.5 10.2 5.1 17.9 5.1 26.7 10.7 29.4 18.9a43 43 0 0 1 0 20.7c-2 6.9-9.6 14.4-17.6 17.5-6.8 2.5-21 3.5-28.5 2m120-.1a50 50 0 0 1-23.6-13.4c-10.1-10-13.5-19-13.5-35.4a47 47 0 0 1 8.2-29c7.6-11.4 18.1-17.5 35.1-20.2 6.7-1.1 8.7-1 15.3.4 4.2.9 10 2.8 12.9 4.2 6 2.9 12.5 9 11 10.4a137 137 0 0 1-15.2 12.1c-.5 0-1.6-.7-2.3-1.7-2.5-3-9.1-5.3-15.4-5.2-11.6 0-18.6 4.3-23.7 14.6a24 24 0 0 0-3.2 14.8q.2 20 16.2 27.1a22 22 0 0 0 25.6-4.5c1.7-1.7 3.3-3.1 3.8-3.1 1.6 0 16.8 12.3 16.8 13.5 0 1.7-7.2 7.9-13 11.1-8.9 5-22.8 6.7-35 4.3m246.5.1a48 48 0 0 1-40.2-52.6c1.9-24.4 17.4-40.7 43-45.5a57 57 0 0 1 38.3 8.2 61 61 0 0 1 15.7 17.2 63 63 0 0 1 2.8 40.7c-5 16-17.2 27.1-34.6 31.5a72 72 0 0 1-25 .5m132.5-.6c-27.6-7.3-42.3-33.3-35-61.9a44 44 0 0 1 31.1-32.9 53 53 0 0 1 38.4.6 46 46 0 0 1 28.4 28.8 63 63 0 0 1-4.1 44.2 51 51 0 0 1-31 21.3 68 68 0 0 1-27.8-.1m-293.3-1.1c-.4-.3-.7-21.7-.7-47.4 0-37.6.3-46.8 1.3-47.2a61 61 0 0 1 10.3-.3l8.9.1.5 17 .5 17h39l.3-16.7.2-16.7 9.6-.3c5.3-.2 10 0 10.5.3s.8 20.2.7 47.5l-.3 46.9h-20l-.5-20-.5-20-19.3-.3c-10.5-.1-19.2.1-19.2.5a732 732 0 0 1-1.6 39.5 65 65 0 0 1-19.7.1m399 0c-.4-.3-.7-21.6-.7-47.3v-46.7l9.6-.7q9.8-.7 11 .5c1.1.9 1.4 8.1 1.6 37.8l.3 36.6h18c9.9 0 18.6.4 19.3.8 1.3.9 1.8 15.1.6 18.1-.5 1.4-4.1 1.6-29.8 1.6-16.1 0-29.6-.3-29.9-.7m-218.1-18.8c15.7-4.6 23.5-24.9 16-41.3a27 27 0 0 0-28-16c-7.5.6-13 3.3-17.9 8.7a24 24 0 0 0-7.4 17.5c-1.7 22.6 16.1 37.4 37.3 31.1m134.8.4a29 29 0 0 0 17.1-14.4c2.7-5.2 3-6.9 3-14.4 0-7.1-.4-9.4-2.4-13.1-5.2-10-12.6-15-23.2-15.8a31 31 0 0 0-21.3 5.9 33 33 0 0 0-9.9 22.1c-.2 20.9 16.9 34.7 36.7 29.7m-382.9-137.5c-16.4-2.5-28.4-11.8-32.5-25.1-1.9-6.4-2-8.9-1.8-39.2l.3-32.4 9.3-.4q9.4-.4 10.8.8c1.2.9 1.4 6.6 1.4 32.3v31.2l2.9 4.5c6.9 11 23.4 10.7 30.7-.6 1.7-2.7 1.9-5.5 2.4-35.5l.5-32.5 8.5-.3a62 62 0 0 1 10.8.3l2.3.6-.3 33.7c-.3 29.3-.6 34.4-2.2 38.7a35 35 0 0 1-23 22 62 62 0 0 1-20.1 1.9m102-.7c-3.3-.7-8-2.2-10.5-3.4-4.9-2.2-11-6.9-11-8.5 0-1.1 13.1-15.8 14.1-15.8.3 0 1.7 1 3 2.1a28 28 0 0 0 15.9 6.3c7.7 0 14-4.5 14-9.8 0-2.3-4.1-6.6-7.7-8.1-1.9-.8-7.5-2.9-12.5-4.6-14.6-5-18.5-7.6-21.7-14.5a36 36 0 0 1-.1-24.4c8.7-17 34.2-23 54.7-12.9 3.7 1.9 6.9 4.2 7.1 5.1s-2.5 4.6-6.4 8.7l-6.6 7.1-2.9-2.1c-9.6-6.8-25.9-3.4-25.9 5.5 0 4.8 3.5 7.7 12.7 10.5 13.4 4 18 6.1 22.7 10.1 5.6 5 7.1 9.1 7.1 19.6 0 8.3-.2 9.4-3 14-3.7 6-11 11.6-17.8 13.8-7 2.3-18 2.8-25.2 1.3m411 .3c-3.3-.5-8.3-1.7-11.1-2.8-5.3-2-14.4-7.7-14.4-9.1 0-.4 3.3-4.3 7.3-8.6l7.3-7.8 4.9 3.6c6.2 4.4 10.5 5.6 16.9 4.5q9.6-1.5 9.6-8.9c0-5.3-4-8.2-18-12.9-19.1-6.5-23.9-11.9-23.9-26.5-.1-15.4 7.8-24.7 24.4-29.1 12-3.2 31.9.7 37.9 7.4 1.8 2.1 1.7 2.2-4.5 9.6a39 39 0 0 1-7.5 7.5c-.6.1-1.7-.5-2.3-1.3-1.7-2-9.7-4.6-14-4.6-4.8 0-10.3 2.9-11.9 6.2-1.1 2.4-1.1 3.3.3 6.1 1.9 4 3.1 4.7 15.5 8.7s19.3 8 22.7 13.2c2.4 3.5 2.9 5.4 3.2 12.5.4 9.6-1.2 15.4-5.9 21.3a37 37 0 0 1-20.5 10.5l-7.5.9a46 46 0 0 1-8.5-.4m98.8-.5c-10-2.2-22.3-8.6-22.3-11.6a49 49 0 0 1 7.2-8.9l7.2-7.9 3.7 3.4c2.1 1.8 6.2 4.1 9.2 5.1 4.8 1.5 6.1 1.5 10.1.4 5-1.4 9.6-5.8 9.6-9.2 0-3.9-5.9-8.3-15.5-11.3-20.7-6.5-27-12.3-28.2-25.6-1.9-21 17.9-35.8 42.9-32a42 42 0 0 1 20.4 8.2c1.5 1.7 1.2 2.3-4.7 9.3a52 52 0 0 1-7.2 7.5c-.5.1-2.1-.7-3.5-1.7-10.5-7.3-26.2-4.1-26.2 5.4 0 5.2 4 7.7 20 12.5 9.5 2.8 17.7 8.2 20.4 13.4a41 41 0 0 1 1.6 23.2 32 32 0 0 1-16.2 17.2c-5.1 2-16.1 4.2-20.3 4-1.1 0-4.8-.7-8.2-1.4m-423.1-1.1c-.9-.5-1.2-10.9-1.2-47.5V1173l2.2-.5a62 62 0 0 1 10.8-.3l8.5.3.3 47.3.2 47.2h-7.7c-4.3 0-8.7.2-9.8.5s-2.6.2-3.3-.1m197-.8c-.9-1.6-1-90.9-.1-92.8.8-1.5 3.8-1.7 31.5-1.8 21.7 0 31 .3 32 1.1 1.5 1.3 2 15.4.6 17.6-.6.9-6.5 1.3-21.7 1.5l-21 .3v16l19 .1c10.5 0 19.6.1 20.3.2 1 .2 1.2 2.6 1 10l-.3 9.7-20 .5-20 .5v17l22.5.5 22.5.5.3 9.3c.2 6.8-.1 9.4-1 9.7-2.6.9-65 1-65.6.1m-537.5-1c-1.1-2.8-.7-89.8.4-91.8 1-1.8 2.4-1.9 29.2-1.5 26.3.3 28.6.5 34 2.6 3.1 1.2 7 3.4 8.6 4.7 9.9 8.3 9.5 28.2-.5 34.7q-6 3.9-1.1 5.6c3.8 1.5 8.6 6.1 10.7 10.2a29 29 0 0 1-.3 22 33 33 0 0 1-15.4 12.8c-2.8 1-11.7 1.5-34.4 1.8-27.4.4-30.7.3-31.2-1.1m403.3-5.3-.3-34.8c-.1-15.4 0-33.6.3-40.4l.5-12.4 12.9-.4c11.1-.3 13.2-.1 14.8 1.4 1.8 1.7 16.4 25 30.3 48.7a79 79 0 0 0 8.2 12.3c.9.3 1-7.3.6-29.9-.4-26.1-.3-30.6 1-31.6q1.4-1.3 10.8-1l9.4.3v94l-13.7.3-13.6.3-2-2.8-14-22.8c-20.1-33.5-22.9-38-23.6-38-.4 0-.8 14.2-.9 31.5l-.2 31.5-10.3.3-10.2.3zm-345.4-15.7c5.2-5.2 4.1-12.2-2.5-14.8a135 135 0 0 0-33.2.3 60 60 0 0 0-.4 16.9c.4.6 7.4 1 16.7 1h16zm-7.6-35.6a11 11 0 0 0 5.5-3.3c2.1-3 1.9-9-.4-11.8-1.8-2.3-2.6-2.4-16.5-2.7-9.3-.3-15.1 0-15.9.7-1.6 1.2-2.2 14.8-.8 16.4 1.3 1.6 22.9 2.1 28.1.7m369.9-100.4a49 49 0 0 1-17-9.2l-2.2-2.3 6.8-7.8c3.7-4.3 7.2-8 7.7-8.2s2.4 1.1 4.1 2.7c9.9 9.6 27.7 7.6 27.7-3.1 0-5.6-3.6-8-19.2-13.2-17.8-5.9-22.8-11.2-23.6-24.4-.4-6.9-.1-8.6 2.1-13.4a30 30 0 0 1 16.3-15.8 40 40 0 0 1 18-2.4h12.1l7.9 4c4.8 2.4 7.9 4.6 7.9 5.6 0 .8-3 4.9-6.8 8.9-5.9 6.5-7 7.3-8.5 6.2-.9-.7-3.5-2.1-5.7-3.2-12.8-6.3-27.6 4.3-18.3 13a64 64 0 0 0 13.5 5.6c17.6 5.5 24 10.9 26.3 22.1 2.9 14-5 28-18.8 33.4-7 2.7-23.2 3.5-30.3 1.5m-420.4-1.8c-.3-.7-.4-22-.3-47.3l.3-46h28c30.9 0 34 .4 41.5 5.9 15.3 11.1 14.5 37.8-1.4 47.1-7 4.1-14.4 5.4-30.8 5.5-13.5 0-14.7.2-15.3 1.9-.3 1-.5 2.3-.4 2.7v16.2l-.1 15.2h-10.5c-7.5 0-10.7-.4-11-1.2m93.5.2q.1-1.1 1-2.8c.6-.9 5-10.9 9.9-22.2 14.6-33.6 24.5-56.1 27.7-62.5l2.9-6h17l1.7 3.5a422 422 0 0 1 12.2 27.2l14 32c1.4 3 3.4 7.8 4.6 10.8l5.1 11.8c1.6 3.5 2.9 7 2.9 7.8 0 1.1-2.2 1.4-11.6 1.4h-11.5l-1.5-3.8-4.5-10-2.8-6.2h-34.9l-1.5 3.2c-.9 1.8-2.5 5.8-3.7 8.8s-2.6 6.1-3.2 6.7c-1.3 1.6-23.8 1.8-23.8.3m130-46.5V1013h27.3c30.7 0 35.8.7 43.6 6.4q4.6 3.2 7.6 9.1c2.6 5 3 6.9 3 13.9 0 6.3-.5 9.1-2.2 12.7a35 35 0 0 1-12.9 13.1c-1.3.6-2.4 1.7-2.4 2.5 0 .7 2 4.6 4.4 8.6a310 310 0 0 1 15.6 27.8c0 .5-5.3.9-11.8.9h-11.8l-9.2-16.2c-12.6-22.5-10.3-20.4-20.5-20l-8.7.3-.2 17.7-.3 17.7-10.7.3-10.8.3zm120.2.3.3-47.3h21v94l-10.8.3-10.7.3zm-190.8 8.4c.3-.5-.1-2.3-.9-3.9a256 256 0 0 1-7.2-18.5q-1.7-5.5-5.8 6l-4.2 10.9c-2.4 5.3-1.6 5.9 8.5 6.2 5 .1 9.3-.2 9.6-.7m-100.9-17.6c5.6-2.4 8.2-9.7 4.9-14.4-3-4.3-6.4-5.2-20.2-5.2q-12.8 0-14 1.2a49 49 0 0 0-.5 19.1c1.3 1.4 26.2.8 29.8-.7m227.5-2.5c4-3.9 4.7-7.3 2.3-11.3-2.8-4.8-7.2-5.9-22.7-5.6l-13.1.3-.3 9.7-.3 9.8h31.3z" />
</svg>
