<svg xmlns="http://www.w3.org/2000/svg" viewBox="0.00 0.00 378.90 378.90"
  fill="currentColor" preserveAspectRatio="xMinYMid meet" role="img"
  aria-label="Sichuan University">
  <g fill="currentColor" fill-rule="evenodd">
    <path
      d="M193.7 252.6h-7.4v-80c0-5.6-1-10.1-8-10.4-5-.2-8.9 3.3-9 10.4l-1.6 71.6c-.3 14.5 6.6 26.1 22.3 26.1s22.6-11.6 22.3-26l-1.6-71.7c-.1-7-4-10.6-9-10.4-7 .3-8 4.8-8 10.4zM45.3 125.3c-.6.5-2.2-.7-3.6 0a5 5 0 0 0-2.3 2.3c-.4.8 0 3.2 2.7 5a38 38 0 0 0 13.8 3.2c1.8-.2 3.2-4 1.7-4.3s-5.5-1.4-6.6-3.2a20 20 0 0 1-2.8-11.8c.1-6.6 2.5-10.2 3.4-10.9s2.2.5 2.5 1l2.5 6.3c.2.3.2 1.7-1 1s-2.5-1-3.6-.2-2.1 1.8-.9 3.2a3 3 0 0 0 3.7 1c.8-.3 2.4-.7 2 .2-.5.8-.3 4.3-.3 4.3s-1.3 1.5 0 2.7c1.2 1 3.5 1 3.5.1s0-4 .3-5.6c.2-1.7.8-4.5 2-5 1-.6 1.9-.2 3.7-1.3s3.8-4 4-5.8c0-1.6 1.2-10.6 2.2-12s3.5-2.2 1-4.5c-2.3-2.2-11.7-3.2-16.2.3a32 32 0 0 0-10.5 15.1c-2.4 6.7-2.8 10.3-2 13.8.9 3.5 1.5 4.7.8 5.1m14.3-12.6s-.5.3-.7 1a47 47 0 0 1-.4-7.7c0-2.2-1.6-2.2-3.2-2q-1.6 0-2.5.2c.9-2.1 1.6-3.6 3.1-5.7 2-2.7 5-5.5 8.3-5.9 2-.2.9 6.2.8 8l-.5 8.3c-.1 1-1.3.8-2.9 1.2s-2 2.6-2 2.6m56.6-70.2c-1.3.7-2 1.6-.7 3.8 1.2 2.2 2.7 1.8 3.8 5.7 1.2 4 3.5 12 4 13.2.5 1.3.3 3.6.3 4.5s.6 3.7 2.7 3.3c2-.4 1.1-2.9 1-4.1a149 149 0 0 0-6-20c-.3-1.5-.3-2.8-1.5-4.2-1.3-1.3-2.2-3-3.6-2.2m9.8-2.1c-.6.2-1.7.5-1.8 1.7 0 1.3 1.3 2.9 2.1 3.8q1.4 1.5 2 3.1c.3 1.2 3.1 8.3 4 8.7 1 .5 2-.8 2-2.7s-.5-4.2-1.3-5q-1.4-1.2-1.4-3.7c0-2.5-1.1-3.4-2.3-4.9a3 3 0 0 0-3.3-1m6.5-16.6c-.7.1-2.2.7-2.6 1.5q-.6 1.4 1.3 3.4t2.2 3.5c.2.9 4.4 10.4 5.5 12.9s2.7 7.3 4.1 10.5c1.5 3 3.7 8.8 5.6 9.8s2.7-2 1.5-3.4c-1-1.4-1-.8-2.7-3.6-1.6-2.8-8.3-18.4-8.7-19.7-.4-1.2-2-6-2-7.5s1.3-3.6.3-5c-.4-1.5-3.7-2.5-4.5-2.4m119.7 37.9c.3 2.5 1.5 10.2 5.4 10.5 4 .2 4.2-4.2 3.3-5.8s-6-7.2-6-7.2c-2.3-2.4-2.8 1-2.7 2.5m88.6 51.1c-.4.2-1.2 1-1.5 1.6s-.9 1.7-1.3 1.8c-.5 0-3.6.7-4.3 1-.6.1-2.7.4-3 1l-1.5 1.7s0 1.2.8 1.2 1 .7 1 .7-.2 1.7-.7 1.4-.6 0-1.3-.7l-6.4-6-1.5-2.6c-.3-.5-.4-1.5-1.3-1.5s-2.1.6-2.4 1.5a4 4 0 0 0 .7 3.2c1.3 1.4 3.8 2.4 5.2 3.3q3.7 2.5 5.7 4.9c1.4 1.5 4.5 5 5.4 6.8.8 1.9 0 2.6-.6 2.4s-2-1-2.5-1.4-1 0-1 0l1.2 2.1c1 1.6 1.8 4.1 2.5 4.2.6 0 4-2 3.5-4.4a20 20 0 0 0-2.4-5.2c-.4-.6-.2-1.4.9-.9 1 .5 2.3 1.3 4.1 1.3s2.5.6 3-.2c.6-.7 1.8-2.1 2-2.6 0-.4 1-.3 2 .7s2.6 2 3.3 1-.3-2.4.6-2.7c1-.4 1.2-1.1 1.7-.5s1 1.3 1.3 1l1.5-1.8c.5-.8.2-2.2-.5-2.1-.8 0-2 .4-2.6.6q-1.2.2-2 .8-.3.9-.9.9c-.5 0-1.2.2-2-.5-.7-.8-.9-1.4-1.6-1.4s-2.6.5-2.6.8c-.1.4.5 1.2-1 1.3-1.3.2-4.8-.4-5.3 0-.5.2 0 1.1-.7 1.3s-1.8 1-2.3.6c-.6-.3-1.7-1.7-1.7-1.7s-1-1.6.7-1.6 4-.4 4.5-.5 1.3.1 1.1-.6 1.3-.3.7-1c-.5-.7-1-1.1 0-1.3 1.1-.1 5 0 7.2-.3 2.2-.4 2.3-1.2 2.5-2s-1.4-2.2-2-2c-.8.2-1.6 1.5-2.5 2-1 .4-4.2 1.2-4.5 1.3-.4.2-2.6.7-3 .7-.5 0-2.7-1.7-1-2 1.9-.1 4-.7 5-1.4s1.9-3.2 1.7-3.7-1.5-.6-2-.5" />
    <path
      d="M323.1 123.6q-1.5.8-1.2 2.1c.2.9 1.7 1 1.9 2 .3 1.8-2.5 2-3.5 2 0 0-3.2-3.4-3.6-4s-1.6-4.1-2.7-3.5c-1 .7-2 2.5-1.3 3.6s1.8 1.8 3 3 2.4 2.5 2.4 3-.7 1.5-1.9 1.8c-1.2.2-4.4.6-5-.1a5 5 0 0 1-.9-3.4c.2-1.1.3-3.6-.9-2.8s-.8 1.6-1.5 2.3c-.8.7-1.4 3-.6 4s3 2 5.5 1.9c2.6-.1 3.8-.6 4.6-.6.9 0 2-1 2.2-.1 0 .8.6 4.2 2 4s3.1-1 2.8-2.1c-.2-1.2-1.9-4-1.9-4s-.3-2.2.5-1.9c.7.3 2.3.5 3.3.6s3-.5 2.5-1.8-2.9-3.8-3.4-4.5-1.3-1.9-2.3-1.5M258.4 39c-.3 0-1.9 2.4-3.6 4.9h-.3c-.8 0-4.1.3-5.3-.6s-3-2.1-3.8-2.2-1.9.4-2.3 1.7c-.4 1.4-.2 2.7 1.6 4.7 2 2 2.3 1.8 4 1.4l3-.5-1.5 1.9c-1 .7-3.9 4.1-5.6 5.4-1.8 1.2-6.6 3.4-6.4 3.5s-1 .3-1.2-1.1-1-.3-2.5.6-.6 2.6-.8 3.6-.1 1.8 1.8 1.5 4-2.4 6.2-3.6c2.3-1.1 6.4-3 8.2-4.8 1.4-1.5 4.1-5.2 5.6-7.4 2-.2 6-.2 6.8-.2 1 0 2 .8 3.4.7 1.5-.2 3-.9 2.2-2-1-1.3-1.8-2.7-3.3-2.3s-2.9.2-3.8.3q-.9.1-2.8-.2l1.8-2.5a5 5 0 0 1 1.7-1.7c.5-.3 1.7-1.4 2.3-2.4s.2-3.9-.6-4.5-2.4-.2-3.1 1.1-1.2 4.6-1.7 4.7m-68.6 60.9h-2c-.5-3.4-2.3-7.5-6.4-7.6l-8.2.1q-4.6-.1-6.6-2.9c.8 4.3 2 8.5 6.7 9.2q3.2.4 6.3.2 4.4 0 5.9 1.2c-8 .7-15.1 3.6-17.6 10.7-2.2 6.4-1.6 22-3 29h-10c-8.8-.1-11.3 7.2-12 16.4l-4.4 77.8c-1 20.5-5.4 29.7-11.8 36.7h14.2c2-1.9 3.5-4.3 7-9.3a37 37 0 0 1-4 9.3h12.3a38 38 0 0 0 3.3-15.7l3.8-87.1c.2-4.7 1.7-7.5 5.5-7.5h18.8v-38.6a10 10 0 0 1 2.2-19.8 10 10 0 0 1 2.1 19.8v38.6h18.9c3.7 0 5.3 2.8 5.5 7.5l3.8 87c.3 5.7.9 11.2 3.2 15.8h12.4a37 37 0 0 1-4-9.3c3.4 5 5 7.4 7 9.3h14.2c-6.5-7-10.8-16.2-11.8-36.7q-2.1-38.9-4.5-77.8c-.6-9.2-3.2-16.5-11.9-16.3h-10c-1.5-7.2-.8-22.7-3-29-2.5-7.2-9.7-10.1-17.6-10.8 1.1-.7 2.7-1.1 5.8-1.2 2.1 0 4.3.2 6.4-.2 4.6-.7 5.8-5 6.7-9.2q-2 2.8-6.6 3c-3.2 0-5.1-.3-8.2-.2-4 .1-6 4.2-6.5 7.6z" />
    <path
      d="M189.5 0c104.3 0 189.4 85.1 189.4 189.5s-85 189.4-189.4 189.4S0 294 0 189.5 85.1 0 189.5 0m0 6.7C88.8 6.7 6.7 88.7 6.7 189.5s82 182.8 182.8 182.8S372.3 290 372.3 189.5 290 6.7 189.5 6.7" />
    <path
      d="m23.3 184.3 8.8-.1v.9q-3.1.5-5.2 3a8 8 0 0 0-2 5.5q0 2.1 1 3.3a3 3 0 0 0 2.5 1.2q2.3 0 4.8-6 0-.5.4-1.1 1.7-4.2 3.5-5.6a7 7 0 0 1 3.8-1.3 7 7 0 0 1 5.5 2.5 10 10 0 0 1 2.3 6.4q0 2.1-.8 4.5l-.8 2.5q0 .6.4.8t1.3.3v1l-7.7.1v-.8a7 7 0 0 0 4.4-2.7 8 8 0 0 0 1.7-5q0-1.9-1-3-.7-1-2.1-1-2 0-3.8 4.6l-.1.4-2 4.7-1.5 2q-1 1-2.4 1.5-1.2.6-2.7.6-3.6 0-5.8-2.5a10 10 0 0 1-2.4-6.7q0-2.2.7-4.8.9-2.5.8-2.8 0-.6-.4-1a2 2 0 0 0-1.2-.4zm8.4 38.4q-1.8.3-2.4 1.1-.7.8-.5 2.5l-.8.2-2.4-13.5.8-.2q.4 1.7 1.3 2.3t2.7.2l15.2-2.7q1.8-.3 2.4-1.1.7-.9.5-2.5l.8-.2 2.4 13.5-.9.1q-.4-1.6-1.2-2.2-.9-.5-2.7-.2zm10.8 32.6a12 12 0 0 1-8.6-8q-.7-2.4-.6-4.7t1.2-4.3q1-2.4 3-4t4.9-2.6q5.3-1.7 9.6.5 4.5 2.2 6 7.5.9 2.2.8 4.6v2.6q.2.4.5.6l1.2.2.2.8-7.3 2.4-.3-.8q2.6-1.4 3.6-3.5a6 6 0 0 0 .2-4.5q-1-3-4-3.7-3-.6-7.9 1a17 17 0 0 0-7.2 4 5 5 0 0 0-1.2 5.2 7 7 0 0 0 2.3 3.2q1.5 1.4 4 2.1zm8.7 16.5 6.2-3.9 3.9 6.3L55 278q-1.5 1-2.6.8-1-.1-2-1.6l-.7.5 7.2 11.6.8-.5q-.9-1.4-.6-2.4t2-2l13-8.2q1.5-1 2.6-.8 1 .2 2 1.6l.7-.5-7.3-11.6-.7.5q.8 1.5.5 2.5t-1.8 2l-5.4 3.3-3.9-6.2 5.4-3.4q1.5-1 2.6-.8 1 .2 2 1.6l.7-.5-7.2-11.6-.8.5q.9 1.5.6 2.5t-1.9 2l-13 8.1q-1.6 1-2.7.8-1-.1-2-1.6l-.7.5 7.3 11.6.7-.5q-.8-1.5-.5-2.5t1.8-2m32.5 33.4 8-7.5q1.4-1.2 1.4-2.3.2-1-1-2.3l.7-.6 5.3 5.7-.7.6q-1.1-1.2-2.2-1.2-1 0-2.4 1.3l-8 7.5q-1.8 1.7-3.2 2.4-1.3.6-2.7.8-1.8 0-3.8-1t-3.9-3Q68 302.1 68 299t3.2-6.3l8.5-7.8q1.4-1.3 1.4-2.4.1-1-1-2.3l.7-.6 9.3 10-.6.6Q88 289 87 289t-2.4 1.2l-9.6 9q-2 1.9-2.2 3.6-.1 1.5 1.4 3.4 2 2 4.3 1.8t5-2.8m7.6 12.5 3.3-2.1 5.1 3.7-1.2 4.4-.5 1q-.5.8-1 .6-.6 0-2.2-1.2l-.5.7 10.3 7.5.5-.7a2 2 0 0 1-.8-1l.2-2 5.7-22-2.1-1.6-19 12q-1.2.8-2 .8-.8.1-1.5-.4l-.6.7 6 4.3.5-.7-.3-.2q-1-.8-1.2-1.4-.2-.7.3-1.5l.4-.4zm4.7-3 6.1-4-2 7zm26.7 4.3q.8-1.7.5-2.7-.3-.9-1.8-1.8l.3-.8 9.1 4.3 4.5 17.5 4-8.7q.8-1.6.5-2.7-.3-.9-1.8-1.8l.4-.8 7 3.3-.3.8q-1.6-.6-2.5-.2-1 .4-1.8 2l-8.3 18-2.5-1.2-6.1-24-6.2 13.4q-.8 1.6-.5 2.7.3 1 1.8 1.8l-.4.8-7-3.3.3-.8q1.6.6 2.5.2 1-.4 1.8-2zm59.7 27.2 1-10.9q.2-1.8-.5-2.7-.6-.8-2.3-1l.1-.9 7.8.7-.1.9q-1.7-.1-2.5.6t-.9 2.6l-1 10.8q0 2.5-.7 4-.5 1.4-1.5 2.3-1.3 1.3-3.5 2-2.1.5-4.8.2-4.8-.3-7-2.8-2.2-2.3-1.8-6.7l1-11.5q.2-2-.5-2.7-.5-1-2.3-1l.1-1 13.6 1.2v1q-1.8-.2-2.5.6-.7.6-1 2.5l-1 13.1q-.3 2.8.7 4.1 1 1.4 3.3 1.6 3 .2 4.4-1.5 1.5-1.8 2-5.5m13.2-10.7q-.3-1.8-1-2.5-.8-.6-2.6-.5v-.9l9.8-1.4 13.3 12.3-1.3-9.5q-.3-1.8-1-2.5-.9-.7-2.5-.5l-.2-1 7.8-1v.9q-1.6.3-2.2 1.1t-.3 2.8l2.8 19.5-2.7.4-18.2-16.8 2 14.6q.3 1.8 1 2.5 1 .7 2.6.6l.1.8-7.7 1.1-.1-.9q1.6-.2 2.2-1.1c.6-1 .5-1.5.3-2.7zM239 343q.5 1.8 1.4 2.3t2.5.2l.3.8-13.2 3.8-.2-.9q1.5-.5 2-1.4.5-1 0-2.8l-4.3-14.7q-.5-1.8-1.4-2.4t-2.5-.1l-.2-.9 13.1-3.8.3.9q-1.7.6-2.1 1.5t0 2.7zm22.2-3.7 1.4-.8-2.2-22.8q0-1.2.3-2.3t1.1-1.4l-.4-.8-6.4 3.4.5.8q1.2-.6 1.9-.6.8 0 1 .7l.3.6.1.8 1.3 12.2-9.9-8.3-.5-.5-.2-.3q-.3-.6 0-1.1t1.3-1l.1-.1-.4-.8-11 5.9.4.7q1-.4 1.7-.2.9 0 2.2 1.2zm18.3-10-.5-.7q1.2-1.2 1.3-2.2 0-1-1.1-2.5l-9.7-12q-1.2-1.3-2.2-1.5t-2.4.8l-.6-.7 16.5-13.3 4.1 5.1-.6.6q-2.1-2-3.9-2t-4.2 2l-2.7 2.2 6 7.3.3-.3q1.5-1.2 1.6-2.7a7 7 0 0 0-1.5-3.8l.7-.5 7.3 9-.7.5q-2-2-3.4-2.2-1.5-.2-3.1 1l-.2.2 4.7 5.8q1 1.5 1.7 1.3.8 0 2.4-1.3a8 8 0 0 0 3.1-4.4q.4-2.2-.9-5.3l.8-.6 3.7 6.8zM302 293l.3-.3q1.4-1.8 1.1-3.4t-2.2-3.3-3.8-1.7-3.3 2.1zm6.2 5.2-5.1-4.2.5-.6 12.3 2.4 5.8-6.8-.7-.6q-.7.8-1.5.9a6 6 0 0 1-2.4-.1l-9.4-1.7q1-2.1.5-4.2-.4-2-2-3.3a5 5 0 0 0-5.3-1.2q-3 1-6 4.7l-8.6 10.2.6.5q1.2-1.2 2.2-1.2t2.5 1.1l11.8 9.9q1.4 1.2 1.5 2.2t-.8 2.4l.6.6 9-10.7-.7-.5q-1.2 1.4-2.3 1.4t-2.5-1.2m19.6-16.2-7.7-4.3.4-.7q3 1 6 0 3-1.1 4.5-3.9 1-1.8.8-3.3a3 3 0 0 0-1.6-2.3q-2-1.2-7.1 2.8l-1 .8a13 13 0 0 1-5.8 3 7 7 0 0 1-3.9-.7 7 7 0 0 1-3.6-5q-.6-3 1.3-6.6a13 13 0 0 1 2.9-3.5l2-1.8q.2-.6 0-1l-1-.8.5-.9 6.8 3.8-.4.7a7 7 0 0 0-5.2.2q-2.5 1-4 3.5-.8 1.5-.6 3 0 1.2 1.3 2 1.7 1 5.6-2.2l.3-.3 4.1-3 2.3-1q1.5-.3 2.8-.2 1.4.3 2.7 1 3 1.6 3.8 5 .6 3.3-1.3 7-1.2 2-3.1 3.8l-2 2q-.4.6-.2 1 .2.6.8 1zm12.6-37-14.3-5.6q-1.8-.7-2.2-1.6t0-2.5l-.8-.3-5 12.7 1 .4q.6-1.5 1.6-2 .9-.3 2.7.3l14.3 5.5q1.9.7 2.2 1.6.5 1 0 2.6l.8.3 4.9-12.8-.8-.3q-.7 1.5-1.7 2-.9.2-2.7-.4m-10.2-37 6.1 1.4-.2.8q-2.6-.3-3.8.6-1.3.9-1.9 3.2l-.3 1.5 17.7 4.1q1.8.5 2.7 0t1.4-2.2l.9.2-3.1 13.3-.9-.2q.3-1.6-.3-2.5t-2.4-1.3l-17.7-4-.4 1.5q-.4 2.3.3 3.7.8 1.3 3.2 2.1l-.2 1-6-1.5zm13.1-18.7 7 .1q2 0 2.7-.6.8-.8.9-2.4h.9l-.3 13.7h-.9q0-1.8-.8-2.4-.8-.8-2.6-.8l-5.6-.1-11 6a6 6 0 0 0-1.9 1.4q-.5.7-.5 1.7h-.9l.2-12.7h1l.1 1.4q.2.5.8.5h.4l.5-.3 8.6-4.4-7.9-4.4-1.2-.4q-.6 0-1 .6l-.3 1.7v.2h-.9l.1-6.9h1v.2q-.1.8.4 1.3t1.3 1zM157 305v-1q2.8 0 3.6-.4.8-.3.8-1.2v-10.7q0-1-.4-1.1-.3-.3-1.4-.3l-2 .1v-1a19 19 0 0 0 7.3-2.1h1.2v15q0 1 .8 1.3.7.3 3.2.3v1.1a170 170 0 0 0-13.1 0m24-8q-1.5.8-2.2 1.5-.7.9-.7 2 0 1.5 1.3 2.5t3.2 1q1.6 0 2.9-.8 1-.8 1.1-2 0-1.2-1.3-2.2t-4.3-2m2.4-2.7q1-.7 1.7-1.5.5-.7.5-1.7 0-1.2-1-2a4 4 0 0 0-2.5-.8 4 4 0 0 0-2.3.7q-1 .6-1 1.6t1 1.8q1.2.9 3.6 1.9m-4.5 1.9a10 10 0 0 1-2.8-2.1q-1-1.1-1-2.4 0-2 2.1-3.2 2-1.2 5.5-1.2 3 0 4.7 1t1.8 2.7q0 1.2-1 2a11 11 0 0 1-3.1 2q2.6.9 3.8 2.1a4 4 0 0 1 1.2 3q0 2.3-2.2 3.8t-5.8 1.5-5.9-1.3-2.2-3.4q0-1.5 1.2-2.6 1.2-1 3.7-2m14 7.7 1.6-1.2 1.6.8q.8.3 1.7.3 2.7 0 4.5-2t1.8-5v-.2q-1.1 1.5-2.5 2.2-1.5.6-3.1.7a6 6 0 0 1-4.2-1.5q-1.6-1.5-1.6-4 0-3 2.1-4.8a8 8 0 0 1 5.7-1.9q3.8 0 6 2.1a8 8 0 0 1 2 5.9q0 2.1-.7 4a10 10 0 0 1-2.2 3.2 11 11 0 0 1-7.7 3q-1.5 0-2.7-.4a7 7 0 0 1-2.3-1.2m7.8-6.8q1.3 0 2.2-.9t.8-2.3q0-2.4-1-3.8t-2.7-1.4q-1.2 0-2 1-.7 1-.7 2.9 0 2.1.9 3.3a3 3 0 0 0 2.5 1.3m18.7-1.5q-1.3 0-2.2.9-.8 1-.8 2.5a6 6 0 0 0 1 3.6 3 3 0 0 0 2.6 1.4q1.4 0 2-1 .9-.9.8-2.7a6 6 0 0 0-.9-3.5 3 3 0 0 0-2.5-1.2m7.8-6.8-1.6 1.3-1.6-.9-1.7-.2q-2.7 0-4.5 2a7 7 0 0 0-1.8 5v.1a8 8 0 0 1 2.5-2.2q1.5-.6 3.1-.7a6 6 0 0 1 4.3 1.5q1.5 1.5 1.5 4 0 3-2.1 4.8a8 8 0 0 1-5.7 1.9q-3.7 0-6-2a8 8 0 0 1-2-6q0-2 .7-4a9 9 0 0 1 2.2-3.2q1.5-1.5 3.5-2.1a12 12 0 0 1 7-.4q1.2.3 2.2 1.1" />
    <path
      d="M189.5 64.8a125 125 0 0 1 124.7 124.7 125 125 0 0 1-64.6 109.2l-2.5-4.8a120 120 0 0 0 61.7-104.4c0-65.7-53.6-119.4-119.3-119.4A119.5 119.5 0 0 0 70 189.5c0 45 25.2 84.3 62.2 104.6l-2.4 4.8a125 125 0 0 1-65.1-109.4A125 125 0 0 1 189.5 64.8" />
  </g>
</svg>
